Coordinates
version=1
nRows=41
nColumns=38
inDegrees=no

Units are S.I. units (second, meters, Newtons, ...)
If the header above contains a line with 'inDegrees', this indicates whether rotational values are in degrees (yes) or radians (no).

endheader
time	pelvis_tilt	pelvis_list	pelvis_rotation	pelvis_tx	pelvis_ty	pelvis_tz	hip_flexion_r	hip_adduction_r	hip_rotation_r	knee_angle_r	ankle_angle_r	subtalar_angle_r	mtp_angle_r	hip_flexion_l	hip_adduction_l	hip_rotation_l	knee_angle_l	ankle_angle_l	subtalar_angle_l	mtp_angle_l	lumbar_extension	lumbar_bending	lumbar_rotation	arm_flex_r	arm_add_r	arm_rot_r	elbow_flex_r	pro_sup_r	wrist_flex_r	wrist_dev_r	arm_flex_l	arm_add_l	arm_rot_l	elbow_flex_l	pro_sup_l	wrist_flex_l	wrist_dev_l
0.47	-2.90767	1.43758	1.24229	0.643698	0.316206	0.999491	0.0370292	0.0753042	-0.0483428	0.596784	0.297717	0	0	0.617456	-0.131339	-0.264074	0.50245	0.235258	0	0	0.0918315	0.0927563	0.243049	-0.000743357	-0.637237	0.303646	0.905489	1.06014	0	0	-0.207313	-0.157127	0.71605	0.274604	1.27337	0	0
0.48	-2.93665	1.43908	1.26573	0.643509	0.303022	0.997962	0.0284247	0.0675974	-0.0471406	0.605901	0.293812	0	0	0.618561	-0.129626	-0.270634	0.518164	0.232704	0	0	0.0951068	0.084945	0.254263	-0.00925184	-0.630357	0.286761	0.900236	1.07964	0	0	-0.206455	-0.159906	0.735225	0.268295	1.25323	0	0
0.49	-2.96711	1.43926	1.28994	0.643257	0.289513	0.996371	0.022588	0.0597262	-0.0461391	0.618523	0.28926	0	0	0.62143	-0.129915	-0.2799	0.542135	0.230203	0	0	0.100657	0.0770026	0.253516	0.00709519	-0.636325	0.332309	0.888589	1.04401	0	0	-0.215967	-0.154873	0.678333	0.259955	1.29767	0	0
0.5	-2.99894	1.43734	1.31501	0.642969	0.275653	0.994824	0.0190575	0.0523293	-0.0433262	0.631174	0.281793	0	0	0.624934	-0.130765	-0.28703	0.568409	0.225679	0	0	0.113186	0.0719847	0.273207	-0.0203711	-0.623646	0.290915	0.884712	1.08337	0	0	-0.209781	-0.171506	0.809039	0.262316	1.16873	0	0
0.51	-3.02691	1.43604	1.33578	0.642666	0.261531	0.993425	0.0154713	0.0449237	-0.0396498	0.644977	0.272614	0	0	0.624914	-0.131378	-0.290219	0.593018	0.219224	0	0	0.122048	0.065548	0.28143	-0.0274377	-0.618552	0.292116	0.87816	1.08478	0	0	-0.214008	-0.175618	0.819293	0.259068	1.1537	0	0
0.52	-3.06253	1.43384	1.36345	0.642317	0.247125	0.99213	0.0147047	0.0362172	-0.0348446	0.661648	0.260824	0	0	0.622855	-0.130718	-0.292634	0.613268	0.21147	0	0	0.133029	0.058272	0.289541	-0.0349485	-0.612263	0.295365	0.87042	1.08557	0	0	-0.218695	-0.180084	0.831763	0.255583	1.13485	0	0
0.53	-3.11479	1.43308	1.40773	0.641986	0.232574	0.991304	0.0146035	0.0244231	-0.0295196	0.680783	0.246464	0	0	0.616795	-0.127174	-0.299888	0.626105	0.201417	0	0	0.142768	0.0475271	0.297431	-0.0413418	-0.603541	0.299663	0.859745	1.08531	0	0	-0.222253	-0.184472	0.844044	0.250287	1.11487	0	0
0.54	3.09239	1.43447	1.47704	0.641755	0.218053	0.991104	0.0149501	0.00872139	-0.0249255	0.703735	0.228214	0	0	0.608165	-0.120732	-0.314728	0.633145	0.18632	0	0	0.146131	0.0287334	0.286799	-0.0120226	-0.604265	0.374879	0.837763	1.02696	0	0	-0.238675	-0.169675	0.669407	0.23298	1.26952	0	0
0.55	3.00325	1.42919	1.56148	0.641654	0.203519	0.991033	0.0258068	-0.00815212	-0.0188831	0.733077	0.200878	0	0	0.606977	-0.113126	-0.325411	0.638125	0.161236	0	0	0.166701	0.0139278	0.308031	-0.0457494	-0.577097	0.321452	0.821012	1.08428	0	0	-0.225579	-0.198746	0.907499	0.241017	1.0282	0	0
0.56	2.9282	1.42608	1.63563	0.641888	0.189214	0.99129	0.0353204	-0.0229525	-0.0122339	0.764134	0.175425	0	0	0.603322	-0.105962	-0.324463	0.644654	0.141847	0	0	0.174986	-0.00452407	0.307429	-0.0477958	-0.562468	0.330677	0.803844	1.0865	0	0	-0.227755	-0.202391	0.894975	0.234322	1.03091	0	0
0.57	2.86413	1.42174	1.70257	0.642595	0.175111	0.991647	0.048552	-0.0365158	-0.00588531	0.79889	0.145392	0	0	0.601023	-0.0969033	-0.318092	0.651962	0.130065	0	0	0.182674	-0.0220508	0.302714	-0.050959	-0.548567	0.339205	0.788682	1.08717	0	0	-0.229044	-0.205961	0.880812	0.228306	1.03712	0	0
0.58	2.8092	1.418	1.76433	0.643796	0.161279	0.992241	0.0632485	-0.0488908	-0.000826285	0.835886	0.112953	0	0	0.599217	-0.0855077	-0.310122	0.660581	0.122506	0	0	0.187498	-0.0381523	0.297442	-0.0615689	-0.534331	0.333982	0.779228	1.09552	0	0	-0.224842	-0.21213	0.900164	0.224272	1.01439	0	0
0.59	2.77174	1.41245	1.81245	0.645397	0.148254	0.993091	0.0828094	-0.0586799	0.00394148	0.874778	0.06851	0	0	0.601152	-0.0733027	-0.301027	0.670747	0.114322	0	0	0.194292	-0.0537557	0.280711	-0.0600267	-0.52491	0.356154	0.767156	1.08619	0	0	-0.226003	-0.209419	0.844509	0.218375	1.0623	0	0
0.6	2.74459	1.40679	1.84968	0.646891	0.134331	0.993333	0.103872	-0.0655767	0.0103646	0.912978	0.0203105	0	0	0.601541	-0.0622144	-0.293092	0.679941	0.107267	0	0	0.198302	-0.0650162	0.267372	-0.0698625	-0.51387	0.35909	0.761424	1.09052	0	0	-0.222523	-0.218034	0.87325	0.216696	1.03367	0	0
0.61	2.72764	1.40231	1.87693	0.6485	0.121255	0.993967	0.126423	-0.0693361	0.0191289	0.95142	-0.0301448	0	0	0.598494	-0.0520551	-0.287068	0.686397	0.104463	0	0	0.202313	-0.0742453	0.253434	-0.0786564	-0.505201	0.366585	0.757389	1.09131	0	0	-0.217811	-0.225463	0.898563	0.218929	1.01085	0	0
0.62	2.7138	1.3996	1.90041	0.650143	0.108532	0.994745	0.14917	-0.0705916	0.029589	0.990262	-0.0792736	0	0	0.591069	-0.0423618	-0.28411	0.690533	0.106568	0	0	0.20278	-0.0817307	0.23825	-0.0859042	-0.498474	0.377406	0.755431	1.09055	0	0	-0.211467	-0.231027	0.916353	0.220824	0.995499	0	0
0.63	2.70068	1.39881	1.92282	0.651827	0.0961576	0.995737	0.171783	-0.0700229	0.0400869	1.02906	-0.132719	0	0	0.579862	-0.0334434	-0.284742	0.69314	0.11158	0	0	0.200055	-0.0878654	0.222273	-0.0913525	-0.493117	0.392039	0.753905	1.08922	0	0	-0.20374	-0.235868	0.930197	0.223526	0.984155	0	0
0.64	2.68157	1.40074	1.95039	0.65351	0.0840677	0.99698	0.193109	-0.0693623	0.0491359	1.06741	-0.193945	0	0	0.564167	-0.0253424	-0.290156	0.694969	0.118556	0	0	0.186888	-0.0968383	0.179242	-0.048948	-0.506979	0.516085	0.744085	0.997376	0	0	-0.216932	-0.209833	0.634546	0.206651	1.26118	0	0
0.65	2.66409	1.40202	1.97544	0.655199	0.0721781	0.998382	0.216876	-0.068717	0.057606	1.10489	-0.253326	0	0	0.547984	-0.0174692	-0.298003	0.695371	0.126064	0	0	0.181929	-0.100177	0.173245	-0.0715541	-0.492609	0.482845	0.744353	1.04534	0	0	-0.201382	-0.224769	0.743055	0.218559	1.1583	0	0
0.66	2.64548	1.40421	2.00107	0.656893	0.060529	0.999881	0.241031	-0.0684141	0.0650228	1.14225	-0.298267	0	0	0.530093	-0.0100303	-0.307594	0.695471	0.134775	0	0	0.174484	-0.103266	0.159459	-0.0771298	-0.486157	0.492481	0.741367	1.05218	0	0	-0.191063	-0.23107	0.760425	0.226475	1.14138	0	0
0.67	2.62722	1.40725	2.02598	0.658543	0.0490512	1.00147	0.265301	-0.0681899	0.0708401	1.17923	-0.324899	0	0	0.510819	-0.00353504	-0.316784	0.695127	0.143847	0	0	0.166528	-0.105125	0.145209	-0.0810854	-0.480238	0.506253	0.737376	1.0568	0	0	-0.181031	-0.237348	0.771932	0.235509	1.13207	0	0
0.68	2.61385	1.41093	2.04609	0.66008	0.0376888	1.00312	0.289662	-0.0674164	0.0736818	1.21491	-0.330991	0	0	0.491204	0.0011157	-0.323445	0.694231	0.151433	0	0	0.158568	-0.105319	0.131185	-0.0855622	-0.474238	0.519642	0.733244	1.06032	0	0	-0.170671	-0.243612	0.778959	0.244997	1.13005	0	0
0.69	2.60741	1.41504	2.05948	0.661551	0.0264019	1.00483	0.314216	-0.0662016	0.0735255	1.24807	-0.324826	0	0	0.472092	0.00408326	-0.325531	0.692427	0.158642	0	0	0.150837	-0.103683	0.114601	-0.0871556	-0.469054	0.539756	0.727747	1.06305	0	0	-0.161497	-0.250325	0.777561	0.258289	1.1222	0	0
0.7	2.60735	1.41924	2.0663	0.662944	0.0152575	1.00649	0.339713	-0.0650583	0.0714287	1.27926	-0.30641	0	0	0.453687	0.00575404	-0.322964	0.688802	0.16336	0	0	0.140744	-0.102604	0.0640218	-0.02138	-0.489216	0.731864	0.711133	0.917009	0	0	-0.183494	-0.230257	0.511896	0.26616	1.34493	0	0
0.71	2.61034	1.42323	2.06924	0.664154	0.00428228	1.00822	0.366823	-0.064358	0.0687405	1.30778	-0.297756	0	0	0.434771	0.00711254	-0.317872	0.680058	0.165948	0	0	0.133787	-0.0994802	0.0475921	-0.0237707	-0.480187	0.746597	0.702202	0.936449	0	0	-0.178971	-0.241077	0.513272	0.290019	1.33819	0	0
0.72	2.6238	1.42787	2.06117	0.665318	-0.00667655	1.00996	0.393517	-0.062212	0.0666763	1.33065	-0.291707	0	0	0.41675	0.00595478	-0.312933	0.672545	0.167272	0	0	0.127794	-0.0936407	0.0333902	-0.0267476	-0.474442	0.766641	0.69569	0.935746	0	0	-0.172764	-0.248901	0.503893	0.309223	1.34432	0	0
0.73	2.64306	1.43338	2.04702	0.666479	-0.0175149	1.0117	0.419339	-0.0596141	0.0641237	1.34916	-0.285458	0	0	0.398537	0.00353733	-0.307812	0.665916	0.168956	0	0	0.12128	-0.0860642	0.020556	-0.0315781	-0.469358	0.782972	0.690272	0.935709	0	0	-0.165219	-0.256707	0.496935	0.328193	1.34913	0	0
0.74	2.66761	1.43926	2.02803	0.667658	-0.0281547	1.01337	0.444485	-0.0570974	0.0605012	1.36367	-0.277748	0	0	0.38074	0.000430659	-0.303403	0.660798	0.170887	0	0	0.114595	-0.0774351	0.00814871	-0.0371504	-0.464909	0.798033	0.685513	0.935324	0	0	-0.156701	-0.264605	0.490592	0.34721	1.3537	0	0
0.75	2.70146	1.4441	1.99985	0.668857	-0.0387745	1.01488	0.469626	-0.0545809	0.0562285	1.37321	-0.269466	0	0	0.364192	-0.0038761	-0.303117	0.656991	0.172398	0	0	0.110291	-0.0678414	-0.00334013	-0.0446268	-0.460824	0.810416	0.681216	0.933419	0	0	-0.147685	-0.271704	0.484106	0.364334	1.35739	0	0
0.76	2.73576	1.44852	1.97079	0.670029	-0.0494204	1.01621	0.494267	-0.0529845	0.0502181	1.38049	-0.24753	0	0	0.346905	-0.00759874	-0.303554	0.652553	0.180954	0	0	0.105056	-0.0597619	-0.0165912	-0.0495744	-0.454208	0.824015	0.672506	0.94785	0	0	-0.144706	-0.285126	0.479098	0.396697	1.35885	0	0
0.77	2.77419	1.45263	1.93774	0.671308	-0.0600793	1.01751	0.517731	-0.0516894	0.0434912	1.38188	-0.235704	0	0	0.329422	-0.0112134	-0.304491	0.647404	0.185498	0	0	0.101038	-0.0503266	-0.0273961	-0.0573451	-0.450151	0.835741	0.667006	0.94728	0	0	-0.13753	-0.294482	0.472393	0.420189	1.36038	0	0
0.78	2.81781	1.45621	1.90068	0.67269	-0.0706564	1.01866	0.540526	-0.0509789	0.0350951	1.37884	-0.224842	0	0	0.312662	-0.0146769	-0.304154	0.641958	0.189482	0	0	0.0975386	-0.0407559	-0.038698	-0.0660852	-0.446266	0.845305	0.661923	0.945517	0	0	-0.13028	-0.30408	0.465918	0.443668	1.36159	0	0
0.79	2.8647	1.45916	1.86085	0.674084	-0.0811467	1.01963	0.562804	-0.0505544	0.0260189	1.37188	-0.214602	0	0	0.296985	-0.0182891	-0.303075	0.636625	0.19249	0	0	0.0946629	-0.0311889	-0.0498061	-0.0757325	-0.442449	0.852499	0.657057	0.942205	0	0	-0.122846	-0.313728	0.459485	0.466852	1.36242	0	0
0.8	2.90787	1.46178	1.82342	0.675348	-0.0914375	1.02046	0.584514	-0.0496656	0.0190654	1.36178	-0.20532	0	0	0.282001	-0.0219218	-0.302501	0.631823	0.193982	0	0	0.0921455	-0.021789	-0.0594734	-0.08559	-0.439159	0.858307	0.653074	0.938218	0	0	-0.114371	-0.322253	0.452459	0.48742	1.36183	0	0
0.81	2.94856	1.4641	1.78871	0.676549	-0.101644	1.0211	0.60501	-0.0492953	0.011397	1.34958	-0.17139	0	0	0.266375	-0.0240936	-0.296733	0.624043	0.19944	0	0	0.0868552	-0.0148611	-0.0718809	-0.0918257	-0.431709	0.863527	0.643222	0.945624	0	0	-0.113578	-0.334418	0.429991	0.522447	1.37695	0	0
0.82	2.99415	1.4661	1.74927	0.677738	-0.111913	1.02164	0.624187	-0.0482232	0.00454336	1.33336	-0.149366	0	0	0.251475	-0.0276534	-0.293514	0.617589	0.202344	0	0	0.0839346	-0.0068127	-0.0813832	-0.100217	-0.426522	0.870642	0.63558	0.942709	0	0	-0.10757	-0.34582	0.422853	0.549238	1.37928	0	0
0.83	3.04166	1.46736	1.7077	0.678917	-0.122191	1.02203	0.642366	-0.0467248	-0.00146951	1.31342	-0.131042	0	0	0.237347	-0.0317032	-0.291834	0.611969	0.205041	0	0	0.0820419	0.001413	-0.0892534	-0.109853	-0.421307	0.875867	0.627838	0.940207	0	0	-0.0999298	-0.356637	0.418674	0.573309	1.38135	0	0
0.84	3.08829	1.46758	1.66636	0.680032	-0.132471	1.02224	0.659784	-0.0445794	-0.00582403	1.28979	-0.115973	0	0	0.223798	-0.0358245	-0.291257	0.606603	0.207731	0	0	0.0814754	0.00946167	-0.0959349	-0.119971	-0.416235	0.880303	0.620158	0.93756	0	0	-0.0916938	-0.36713	0.41659	0.595341	1.38358	0	0
0.85	3.128	1.46688	1.63108	0.681056	-0.142767	1.02228	0.676457	-0.0422912	-0.00829409	1.26325	-0.105553	0	0	0.210809	-0.0394989	-0.292192	0.601814	0.209612	0	0	0.0823986	0.0171593	-0.101862	-0.130637	-0.412165	0.884132	0.614054	0.934989	0	0	-0.0827028	-0.376401	0.415679	0.61355	1.38389	0	0
0.86	-3.11594	1.46396	1.59631	0.681984	-0.153078	1.02208	0.692584	-0.0392953	-0.00963398	1.23231	-0.0686806	0	0	0.199909	-0.0428651	-0.291221	0.596858	0.217169	0	0	0.081614	0.0224843	-0.116221	-0.130281	-0.401995	0.900148	0.594927	0.936047	0	0	-0.091045	-0.380304	0.35944	0.645939	1.4314	0	0
0.87	-3.08367	1.46074	1.56827	0.682918	-0.1633	1.02172	0.707354	-0.0367067	-0.00962815	1.19817	-0.0510141	0	0	0.18979	-0.046264	-0.292458	0.593288	0.220732	0	0	0.0842443	0.028662	-0.121724	-0.139577	-0.395012	0.903023	0.583405	0.933413	0	0	-0.0841432	-0.390024	0.356552	0.665691	1.4365	0	0
